<?xml version="1.0" standalone="no"?>
<!DOCTYPE svg PUBLIC "-//W3C//DTD SVG 20010904//EN"
 "http://www.w3.org/TR/2001/REC-SVG-20010904/DTD/svg10.dtd">
<svg version="1.0" xmlns="http://www.w3.org/2000/svg"
 width="700.000000pt" height="700.000000pt" viewBox="0 0 700.000000 700.000000"
 preserveAspectRatio="xMidYMid meet">
<metadata>
Created by potrace 1.11, written by Peter Selinger 2001-2013
</metadata>
<g transform="translate(0.000000,700.000000) scale(0.100000,-0.100000)"
fill="#000000" stroke="none">
<path d="M3318 6865 c-2 -2 -41 -6 -88 -9 -104 -8 -158 -14 -230 -26 -30 -5
-72 -12 -94 -16 -21 -3 -48 -8 -60 -10 -11 -3 -32 -7 -46 -10 -14 -3 -45 -10
-70 -15 -25 -6 -53 -12 -63 -14 -10 -2 -32 -9 -50 -14 -18 -6 -79 -25 -137
-42 -227 -69 -568 -224 -728 -330 -24 -16 -45 -29 -47 -29 -7 0 -210 -143
-275 -193 -186 -146 -407 -363 -542 -532 -44 -55 -85 -107 -92 -116 -125 -156
-315 -492 -412 -724 -33 -80 -110 -295 -119 -335 -2 -8 -17 -67 -34 -130 -17
-63 -33 -131 -36 -150 -3 -19 -12 -71 -20 -115 -33 -189 -40 -282 -40 -560 0
-137 4 -285 8 -327 75 -706 344 -1340 791 -1863 67 -79 307 -320 376 -378 77
-65 307 -237 317 -237 6 0 18 -9 28 -20 10 -11 24 -20 31 -20 7 0 14 -4 16 -8
5 -13 210 -128 333 -187 268 -130 585 -234 851 -280 49 -8 99 -17 109 -19 20
-4 87 -12 157 -21 78 -9 294 -19 338 -16 13 1 15 159 15 1358 l0 1357 1687 0
1686 0 -3 455 c-2 251 -6 470 -9 486 -2 17 -7 64 -11 105 -4 41 -18 134 -31
206 -83 458 -250 878 -498 1254 -159 241 -323 435 -539 636 -459 429 -1069
731 -1692 839 -121 22 -137 24 -201 30 -32 4 -75 9 -94 12 -36 5 -477 12 -482
8z"/>
</g>
</svg>
